<?xml version="1.0" encoding="utf-8"?>
<!-- Generator: Adobe Illustrator 24.0.1, SVG Export Plug-In . SVG Version: 6.00 Build 0)  -->
<svg version="1.1" xmlns="http://www.w3.org/2000/svg" xmlns:xlink="http://www.w3.org/1999/xlink" x="0px" y="0px"
	 viewBox="0 0 225 225" style="enable-background:new 0 0 225 225;" xml:space="preserve">
<style type="text/css">
	.st0{fill:#9FA8DA;stroke:#000000;stroke-width:0.5;stroke-miterlimit:10;}
	.st1{fill:#283593;}
	.st2{fill:#3F51B5;}
	.st3{fill:#7986CB;}
	.st4{fill:#9FA8DA;}
</style>
<g id="Layer_1">
	<path class="st0" d="M162.98,203.5H58.02c-12.44,0-22.52-10.08-22.52-22.52V76.02c0-12.44,10.08-22.52,22.52-22.52h104.96
		c12.44,0,22.52,10.08,22.52,22.52v104.96C185.5,193.42,175.42,203.5,162.98,203.5z"/>
</g>
<g id="Layer_4">
	<path d="M110.89,113c-1.2,0-2.4,0.15-3.6,0.43c-1.2,0.28-2.35,0.69-3.45,1.2c-1.1,0.52-2.11,1.14-3.02,1.86
		c-0.92,0.73-1.7,1.53-2.35,2.42c-0.93,1.28-1.65,2.67-2.14,4.16c-0.49,1.5-0.74,3.1-0.74,4.82c-0.01,2.1,0.31,4.1,0.95,6.01
		c0.64,1.9,1.66,3.62,3.05,5.16c0.81,0.88,1.75,1.63,2.81,2.26s2.24,1.12,3.53,1.46c1.29,0.34,2.68,0.51,4.17,0.52
		c1.57,0,3.09-0.24,4.6-0.69c1.5-0.46,2.91-1.14,4.22-2.05c1.31-0.9,2.45-2.03,3.42-3.36c0.64-0.88,1.16-1.81,1.58-2.78
		c0.42-0.98,0.74-2.03,0.95-3.16c0.21-1.13,0.31-2.38,0.31-3.74c0-1.53-0.2-3-0.58-4.42c-0.38-1.43-0.96-2.75-1.72-3.97
		c-0.76-1.22-1.71-2.29-2.86-3.21c-1.14-0.92-2.48-1.63-4-2.14C114.5,113.27,112.79,113.01,110.89,113z M109.31,114.84
		c0.23,0,0.47,0.01,0.69,0.02h0.01v26.28H110c-0.46-0.06-0.9-0.16-1.32-0.28c-0.53-0.15-1.04-0.34-1.53-0.57l-0.01-0.01v-25.2
		l0.01-0.01C107.83,114.92,108.56,114.84,109.31,114.84z M110.79,114.94h0.02c0.64,0.08,1.25,0.22,1.83,0.41
		c0.3,0.09,0.59,0.2,0.88,0.32l0.01,0.01v25.46h-0.01c-0.53,0.1-1.08,0.14-1.64,0.14c-0.36,0-0.72-0.01-1.07-0.04h-0.02V114.94z
		 M106.36,115.31v24.57l-0.02-0.01c-0.1-0.06-0.2-0.12-0.3-0.19c-1.02-0.66-1.91-1.48-2.66-2.44c-0.74-0.96-1.37-2.02-1.84-3.15
		c-0.48-1.14-0.84-2.34-1.07-3.57s-0.35-2.47-0.35-3.7c0-1.59,0.18-3.1,0.54-4.5c0.35-1.4,0.91-2.67,1.65-3.77
		c0.74-1.11,1.68-2.01,2.81-2.67c0.39-0.22,0.8-0.4,1.23-0.55L106.36,115.31z M114.31,116.03l0.02,0.01
		c0.38,0.2,0.74,0.42,1.09,0.67c0.9,0.63,1.71,1.41,2.4,2.32c0.66,0.88,1.22,1.88,1.67,2.98c0.43,1.07,0.76,2.23,0.97,3.44
		c0.21,1.17,0.32,2.41,0.32,3.7c0.01,1.43-0.12,2.81-0.37,4.11c-0.26,1.31-0.68,2.51-1.25,3.57c-0.57,1.08-1.34,2.02-2.3,2.81
		c-0.61,0.52-1.34,0.91-2.22,1.2c-0.11,0.03-0.22,0.07-0.32,0.1l-0.02,0.01V116.03z"/>
</g>
<g id="Layer_2">
	<path class="st1" d="M48.2,79c0,0-2.42-6.67-1-9l-15-10.87c-1.75,5.17-9,7.87-9,7.87c3.51,2.82,6.94,2.22,8.73,1.58
		c-0.02,0.06-0.06,0.12-0.09,0.19c-0.37,0.98-0.61,1.96-0.72,2.87C31,72.55,31.01,73.38,31.06,74c0.01,0.29,0.07,0.56,0.08,0.73
		C31.18,74.9,31.2,75,31.2,75s0.1-0.01,0.27-0.04c0.16-0.04,0.44-0.07,0.72-0.16c0.6-0.15,1.39-0.41,2.21-0.81
		c0.83-0.4,1.68-0.95,2.48-1.61c0.1-0.08,0.19-0.19,0.29-0.28c-0.01,0.63,0.01,1.24,0.09,1.81c0.12,0.86,0.34,1.63,0.55,2.19
		c0.08,0.27,0.21,0.51,0.27,0.66C38.16,76.92,38.2,77,38.2,77s0.09-0.03,0.25-0.09c0.15-0.07,0.4-0.15,0.65-0.29
		c0.54-0.26,1.23-0.66,1.91-1.21c0.52-0.41,1.03-0.92,1.5-1.47C43.04,75.71,44.44,78.18,48.2,79z"/>
	<path class="st2" d="M58.85,58.22c-0.06,0.02-0.13,0.05-0.15,0.05c-0.03,0-0.05,0-0.08,0c-0.08,0.02-0.13,0.04-0.13,0.04l1.08,1.68
		c0,0,0.03-0.04,0.09-0.11c0.04-0.05,0.1-0.11,0.16-0.18c0.07-0.08,0.09-0.13,0.15-0.21c0.19-0.29,0.38-0.65,0.56-1.02
		C60.88,57.74,61.2,57,61.2,57s-0.69,0.41-1.39,0.78C59.45,57.96,59.1,58.13,58.85,58.22z M56,57.1c-0.05,0.01-0.12,0.04-0.14,0.03
		c-0.03,0-0.04-0.01-0.08,0c-0.08,0.02-0.12,0.03-0.12,0.03l1.08,1.68c0,0,0.03-0.04,0.08-0.1c0.04-0.05,0.09-0.1,0.15-0.17
		c0.07-0.07,0.09-0.13,0.14-0.2c0.17-0.27,0.35-0.62,0.51-0.97c0.32-0.7,0.59-1.4,0.59-1.4s-0.65,0.38-1.31,0.71
		C56.56,56.87,56.23,57.02,56,57.1z M66.01,53.31l-4.56-2.48L60.2,55l2.98-2.23L62.2,57L66.01,53.31z M58.2,53l3.25-2.17l-2.5-1.66
		L58.2,53z M50.2,73c0,0-3.25-4-1-7c1.97-2.63-4.88-6.66-4.92-6.79c-0.05-0.14-11.08-5.08-11.08-5.08c-1.75,5.17-8,6.93-8,6.93
		c3.92,2.55,6.33,2.12,7.66,1.34c-0.34,0.88-0.56,1.77-0.68,2.59c-0.12,0.82-0.12,1.57-0.09,2.12c0,0.26,0.05,0.5,0.06,0.65
		C32.18,67.92,32.2,68,32.2,68s0.08-0.02,0.24-0.05c0.14-0.04,0.38-0.08,0.63-0.17c0.53-0.16,1.23-0.43,1.95-0.83
		c0.73-0.4,1.49-0.92,2.2-1.56c0.34-0.3,0.66-0.63,0.97-0.98c-0.21,0.52-0.38,1.05-0.47,1.6c-0.16,0.8-0.19,1.6-0.14,2.33
		c0.06,0.73,0.2,1.39,0.34,1.87c0.05,0.23,0.15,0.44,0.2,0.57C38.17,70.93,38.2,71,38.2,71s0.07-0.02,0.21-0.06
		c0.13-0.04,0.36-0.09,0.58-0.19c0.47-0.18,1.07-0.46,1.7-0.85c0.62-0.4,1.24-0.9,1.79-1.51c0.27-0.29,0.51-0.6,0.74-0.93
		C43.52,68.77,44.86,72.49,50.2,73z"/>
	<path class="st3" d="M68.07,46.04C65.93,44.61,57.2,44,57.2,44c-0.08-0.8-0.5-2.42-5-3c-2.83-0.37-5.22-0.34-7.23-0.09
		c-5.3-3.63-11.77-0.97-11.77-0.97c0.59,0.81,1.2,1.51,1.83,2.12C30.81,41.7,27.2,44,27.2,44c2.26,3.13,5.11,4.39,7.71,4.78
		C32.86,53.4,27.2,55,27.2,55c3.02,1.96,5.14,2.16,6.56,1.79c-0.08,0.28-0.18,0.57-0.24,0.84c-0.22,0.92-0.31,1.76-0.33,2.37
		c-0.03,0.3,0,0.56-0.01,0.73C33.19,60.91,33.2,61,33.2,61s0.09-0.02,0.26-0.07c0.16-0.05,0.42-0.11,0.69-0.23
		c0.58-0.21,1.35-0.54,2.16-1.03c0.82-0.48,1.68-1.11,2.51-1.86c0.04-0.04,0.09-0.09,0.13-0.13c-0.32,0.96-0.55,1.91-0.68,2.78
		c-0.15,0.99-0.18,1.86-0.15,2.5c-0.01,0.31,0.04,0.58,0.05,0.75C38.19,63.9,38.2,64,38.2,64s0.09-0.04,0.26-0.1
		c0.16-0.08,0.41-0.17,0.68-0.33c0.57-0.29,1.33-0.74,2.11-1.35c0.79-0.61,1.62-1.37,2.4-2.25c-0.02,0.07-0.05,0.13-0.07,0.2
		c-0.31,1.15-0.5,2.27-0.57,3.27c-0.08,1-0.04,1.89,0.03,2.53c0.02,0.31,0.08,0.58,0.1,0.75C43.18,66.9,43.2,67,43.2,67
		s0.09-0.04,0.25-0.13c0.15-0.09,0.4-0.21,0.66-0.38c0.55-0.34,1.27-0.85,2.01-1.53c0.56-0.5,1.13-1.1,1.68-1.76
		c-0.12,1.9,0.34,4.54,3.4,5.8c0,0-0.67-5.08,2-7s5,2,5,2l3.7-3.07c0.46-0.46,0.32-1.22-0.26-1.5c-2.78-1.3-9.44-2.58-9.44-7.43
		c3.08-4,7.31-1.25,12,2c0,0,0.44,0,1,0c2.12-0.38,1.36-3.89,2.88-4.96C70.2,47.54,68.82,46.54,68.07,46.04z"/>
	<path class="st4" d="M68.07,46.04C65.93,44.61,57.2,44,57.2,44c-0.08-0.8-0.5-2.42-5-3c-7-0.91-11.39,0.58-13.77,2
		c-5.47-2.69-11.23,1-11.23,1c3.69,5.1,8.94,5.25,12.15,4.74c-0.04,0.1-0.1,0.19-0.14,0.29c-0.41,0.95-0.69,1.9-0.85,2.78
		c-0.17,0.87-0.22,1.66-0.21,2.25c-0.01,0.28,0.02,0.53,0.03,0.69C38.19,54.91,38.2,55,38.2,55s0.09-0.02,0.25-0.06
		c0.15-0.05,0.4-0.1,0.66-0.2c0.55-0.18,1.29-0.48,2.06-0.92c0.77-0.44,1.59-1.01,2.35-1.71c0.31-0.28,0.6-0.59,0.9-0.9
		c-0.08,0.19-0.18,0.38-0.26,0.57c-0.4,1-0.68,2-0.83,2.91c-0.16,0.91-0.2,1.73-0.19,2.33c-0.01,0.29,0.03,0.55,0.03,0.71
		C43.19,57.91,43.2,58,43.2,58s0.09-0.03,0.25-0.07c0.15-0.06,0.41-0.12,0.67-0.24c0.56-0.22,1.3-0.57,2.08-1.07
		c0.75-0.48,1.53-1.09,2.28-1.81c-0.83-4.6,1.06-10.02,16.72-6.81c-10.77,1.24-11.62,2.25-13,4c3.08-4,7.31-1.25,12,2
		c0,0,0.44,0,1,0c2.12-0.38,1.36-3.89,2.88-4.96C70.2,47.54,68.82,46.54,68.07,46.04z M31.2,44.65c1-0.61,5.24-1.59,7,1.84
		C38.2,46.48,33.58,48.56,31.2,44.65z"/>
	<path class="st2" d="M68.07,46.04c-0.59-0.4-1.7-0.72-2.99-0.99c2.08,1.58,2.99,3.99,2.99,3.99C70.2,47.54,68.82,46.54,68.07,46.04
		z"/>
	<path class="st1" d="M49.2,43c0,0,3.45,2,4,2c0.55,0,1-0.45,1-1s-0.45-1-1-1C52.65,43,49.2,43,49.2,43z"/>
</g>
<g id="Layer_3">
	<path class="st1" d="M174.64,80c0,0,2.42-6.67,1-9l15-10.87c1.75,5.17,9,7.87,9,7.87c-3.51,2.82-6.94,2.22-8.73,1.58
		c0.02,0.06,0.06,0.12,0.09,0.19c0.37,0.98,0.61,1.96,0.72,2.87c0.12,0.91,0.11,1.74,0.05,2.36c-0.01,0.29-0.07,0.56-0.08,0.73
		c-0.03,0.18-0.05,0.27-0.05,0.27s-0.1-0.01-0.28-0.04c-0.16-0.04-0.44-0.07-0.72-0.16c-0.6-0.15-1.39-0.41-2.21-0.81
		c-0.83-0.4-1.68-0.95-2.48-1.61c-0.1-0.08-0.19-0.19-0.29-0.28c0.01,0.63-0.01,1.24-0.09,1.81c-0.12,0.86-0.34,1.63-0.55,2.19
		c-0.08,0.27-0.21,0.51-0.27,0.66c-0.08,0.16-0.12,0.24-0.12,0.24s-0.09-0.03-0.25-0.09c-0.15-0.07-0.4-0.15-0.65-0.29
		c-0.54-0.26-1.23-0.66-1.91-1.21c-0.52-0.41-1.03-0.92-1.5-1.47C179.79,76.71,178.39,79.18,174.64,80z"/>
	<path class="st2" d="M163.98,59.22c0.06,0.02,0.13,0.05,0.15,0.05c0.03,0,0.05,0,0.08,0c0.08,0.02,0.13,0.04,0.13,0.04l-1.08,1.68
		c0,0-0.03-0.04-0.09-0.11c-0.04-0.05-0.1-0.11-0.16-0.18c-0.07-0.08-0.09-0.13-0.15-0.21c-0.19-0.29-0.38-0.65-0.56-1.02
		c-0.36-0.74-0.68-1.47-0.68-1.47s0.69,0.41,1.39,0.78C163.38,58.96,163.73,59.13,163.98,59.22z M166.84,58.1
		c0.05,0.01,0.12,0.04,0.14,0.03c0.03,0,0.04-0.01,0.08,0c0.08,0.02,0.12,0.03,0.12,0.03l-1.08,1.68c0,0-0.03-0.04-0.08-0.1
		c-0.04-0.05-0.09-0.1-0.15-0.17c-0.07-0.07-0.09-0.13-0.14-0.2c-0.17-0.27-0.35-0.62-0.51-0.97c-0.32-0.7-0.59-1.4-0.59-1.4
		s0.65,0.38,1.31,0.71C166.27,57.87,166.61,58.02,166.84,58.1z M156.82,54.31l4.57-2.48l1.25,4.17l-2.98-2.23l0.98,4.23
		L156.82,54.31z M164.64,54l-3.25-2.17l2.5-1.66L164.64,54z M172.64,74c0,0,3.25-4,1-7c-1.97-2.63,4.88-6.66,4.92-6.79
		c0.05-0.14,11.08-5.08,11.08-5.08c1.75,5.17,8,6.93,8,6.93c-3.92,2.55-6.33,2.12-7.66,1.34c0.34,0.88,0.56,1.77,0.68,2.59
		c0.12,0.82,0.12,1.57,0.08,2.12c0,0.26-0.05,0.5-0.06,0.65c-0.03,0.16-0.04,0.24-0.04,0.24s-0.08-0.02-0.24-0.05
		c-0.14-0.04-0.38-0.08-0.63-0.17c-0.53-0.16-1.23-0.43-1.95-0.83c-0.73-0.4-1.49-0.92-2.2-1.56c-0.34-0.3-0.66-0.63-0.97-0.97
		c0.21,0.52,0.38,1.05,0.47,1.6c0.15,0.8,0.19,1.6,0.14,2.33c-0.06,0.73-0.2,1.39-0.34,1.87c-0.05,0.23-0.15,0.44-0.2,0.57
		c-0.05,0.13-0.08,0.21-0.08,0.21s-0.07-0.02-0.21-0.06c-0.13-0.04-0.36-0.09-0.58-0.19c-0.47-0.17-1.07-0.46-1.7-0.85
		c-0.62-0.4-1.24-0.9-1.79-1.51c-0.27-0.29-0.51-0.6-0.74-0.93C179.31,69.77,177.97,73.49,172.64,74z"/>
	<path class="st3" d="M154.76,47.04c2.14-1.43,10.88-2.04,10.88-2.04c0.08-0.8,0.5-2.42,5-3c2.83-0.37,5.22-0.34,7.23-0.09
		c5.3-3.63,11.77-0.97,11.77-0.97c-0.59,0.81-1.2,1.51-1.83,2.12c4.22-0.37,7.83,1.93,7.83,1.93c-2.26,3.13-5.11,4.39-7.71,4.79
		c2.05,4.61,7.71,6.21,7.71,6.21c-3.02,1.96-5.14,2.16-6.57,1.79c0.08,0.28,0.18,0.57,0.24,0.84c0.22,0.92,0.31,1.76,0.33,2.37
		c0.03,0.3,0.01,0.56,0.01,0.73c-0.01,0.17-0.01,0.27-0.01,0.27s-0.09-0.02-0.26-0.07c-0.16-0.05-0.42-0.11-0.69-0.23
		c-0.58-0.21-1.35-0.54-2.16-1.03c-0.82-0.48-1.68-1.11-2.51-1.86c-0.04-0.04-0.09-0.09-0.13-0.13c0.32,0.96,0.55,1.91,0.68,2.78
		c0.15,0.99,0.18,1.86,0.15,2.5c0.01,0.31-0.04,0.58-0.05,0.75c-0.02,0.18-0.04,0.28-0.04,0.28s-0.09-0.04-0.26-0.1
		c-0.15-0.08-0.41-0.17-0.68-0.33c-0.57-0.29-1.32-0.74-2.11-1.35c-0.79-0.61-1.62-1.37-2.4-2.25c0.02,0.07,0.05,0.13,0.07,0.2
		c0.32,1.15,0.5,2.27,0.57,3.27c0.08,1,0.04,1.89-0.03,2.53c-0.02,0.31-0.08,0.58-0.1,0.75c-0.04,0.18-0.06,0.28-0.06,0.28
		s-0.09-0.04-0.25-0.13c-0.15-0.09-0.4-0.21-0.66-0.38c-0.55-0.34-1.27-0.85-2.01-1.53c-0.56-0.5-1.13-1.1-1.68-1.76
		c0.12,1.9-0.34,4.54-3.4,5.8c0,0,0.67-5.08-2-7c-2.67-1.92-5,2-5,2l-3.7-3.07c-0.46-0.46-0.32-1.22,0.26-1.5
		c2.78-1.3,9.44-2.58,9.44-7.43c-3.08-4-7.31-1.25-12,2c0,0-0.44,0-1,0c-2.12-0.38-1.36-3.89-2.88-4.96
		C152.64,48.54,154.01,47.54,154.76,47.04z"/>
	<path class="st4" d="M154.76,47.04c2.14-1.43,10.88-2.04,10.88-2.04c0.08-0.8,0.5-2.42,5-3c7-0.91,11.39,0.58,13.77,2
		c5.47-2.69,11.23,1,11.23,1c-3.69,5.1-8.94,5.25-12.15,4.74c0.04,0.1,0.1,0.19,0.14,0.29c0.41,0.95,0.69,1.9,0.85,2.78
		c0.17,0.87,0.22,1.66,0.21,2.25c0.01,0.28-0.02,0.53-0.03,0.69c-0.02,0.17-0.03,0.26-0.03,0.26s-0.09-0.02-0.25-0.06
		c-0.15-0.05-0.4-0.1-0.66-0.2c-0.55-0.18-1.29-0.48-2.06-0.92c-0.77-0.44-1.59-1.01-2.35-1.71c-0.31-0.28-0.6-0.59-0.9-0.9
		c0.09,0.19,0.19,0.38,0.26,0.57c0.4,1,0.68,2,0.83,2.91c0.16,0.91,0.2,1.73,0.19,2.33c0.01,0.29-0.03,0.55-0.03,0.71
		c-0.02,0.17-0.03,0.26-0.03,0.26s-0.09-0.03-0.26-0.07c-0.15-0.06-0.4-0.12-0.67-0.24c-0.56-0.22-1.3-0.57-2.08-1.07
		c-0.75-0.48-1.53-1.09-2.27-1.81c0.83-4.6-1.06-10.02-16.72-6.81c10.77,1.24,11.62,2.25,13,4c-3.08-4-7.31-1.25-12,2
		c0,0-0.44,0-1,0c-2.12-0.38-1.36-3.89-2.88-4.96C152.64,48.54,154.01,47.54,154.76,47.04z M191.64,45.65c-1-0.61-5.24-1.59-7,1.84
		C184.64,47.48,189.26,49.55,191.64,45.65z"/>
	<path class="st2" d="M154.76,47.04c0.59-0.4,1.7-0.72,2.99-0.99c-2.08,1.58-2.99,3.99-2.99,3.99
		C152.64,48.54,154.01,47.54,154.76,47.04z"/>
	<path class="st1" d="M173.64,44c0,0-3.45,2-4,2c-0.55,0-1-0.45-1-1c0-0.55,0.45-1,1-1C170.19,44,173.64,44,173.64,44z"/>
</g>
</svg>
